<svg xmlns="http://www.w3.org/2000/svg" width="32" height="32" viewBox="0 0 32 32">
  <defs>
    <linearGradient id="greenGradient" x1="0%" y1="0%" x2="100%" y2="100%">
      <stop offset="0%" stop-color="#10b981"/>
      <stop offset="100%" stop-color="#059669"/>
    </linearGradient>
  </defs>
  
  <!-- Leaf shape representing agriculture -->
  <path d="M16 2 C8 2, 2 8, 2 16 C2 20, 4 23, 7 25 L16 30 L25 25 C28 23, 30 20, 30 16 C30 8, 24 2, 16 2 Z" 
        fill="url(#greenGradient)" opacity="0.9"/>
  
  <!-- Blockchain links -->
  <circle cx="10" cy="12" r="2" fill="#ffffff" opacity="0.8"/>
  <circle cx="16" cy="8" r="2" fill="#ffffff" opacity="0.8"/>
  <circle cx="22" cy="12" r="2" fill="#ffffff" opacity="0.8"/>
  <circle cx="16" cy="16" r="2" fill="#ffffff" opacity="0.8"/>
  
  <!-- Connection lines -->
  <line x1="10" y1="12" x2="16" y2="8" stroke="#ffffff" stroke-width="1.5" opacity="0.6"/>
  <line x1="16" y1="8" x2="22" y2="12" stroke="#ffffff" stroke-width="1.5" opacity="0.6"/>
  <line x1="16" y1="16" x2="10" y2="12" stroke="#ffffff" stroke-width="1.5" opacity="0.6"/>
  <line x1="16" y1="16" x2="22" y2="12" stroke="#ffffff" stroke-width="1.5" opacity="0.6"/>
  
  <!-- QR code symbol -->
  <rect x="12" y="20" width="8" height="8" fill="#ffffff" opacity="0.3" rx="1"/>
  <rect x="13" y="21" width="2" height="2" fill="#10b981"/>
  <rect x="17" y="21" width="2" height="2" fill="#10b981"/>
  <rect x="13" y="25" width="2" height="2" fill="#10b981"/>
  <rect x="17" y="25" width="2" height="2" fill="#10b981"/>
</svg>